HIERARCHY
ROOT Hips
{
	OFFSET 0.000000 0.000000 0.000000
	CHANNELS 6 Xposition Yposition Zposition Xrotation Yrotation Zrotation
	JOINT LeftUpLeg_virtual
	{
		OFFSET 0.000000 0.000000 0.000000
		CHANNELS 3 Xrotation Yrotation Zrotation
		JOINT LeftUpLeg
		{
			OFFSET 10.205400 -3.823500 0.155100
			CHANNELS 3 Xrotation Yrotation Zrotation
			JOINT LeftLeg
			{
				OFFSET 0.708757 -12.982077 0.567790
				CHANNELS 3 Xrotation Yrotation Zrotation
				JOINT LeftFoot
				{
					OFFSET -0.708756 -10.717838 -2.184338
					CHANNELS 3 Xrotation Yrotation Zrotation
					JOINT LeftToeBase
					{
						OFFSET 0.108149 -7.191104 7.560241
						CHANNELS 3 Xrotation Yrotation Zrotation
						JOINT LeftToe_End
						{
							OFFSET 0.070230 0.081724 4.490308
							CHANNELS 3 Xrotation Yrotation Zrotation
							End Site
							{
								OFFSET 0 0 0
							}
						}
					}
				}
			}
		}
	}
	JOINT RightUpLeg_virtual
	{
		OFFSET 0.000000 0.000000 0.000000
		CHANNELS 3 Xrotation Yrotation Zrotation
		JOINT RightUpLeg
		{
			OFFSET -10.205400 -3.823500 0.005500
			CHANNELS 3 Xrotation Yrotation Zrotation
			JOINT RightLeg
			{
				OFFSET -0.708756 -12.982134 0.610632
				CHANNELS 3 Xrotation Yrotation Zrotation
				JOINT RightFoot
				{
					OFFSET 0.708754 -10.717769 -1.945823
					CHANNELS 3 Xrotation Yrotation Zrotation
					JOINT RightToeBase
					{
						OFFSET -0.108140 -7.191069 7.372968
						CHANNELS 3 Xrotation Yrotation Zrotation
						JOINT RightToe_End
						{
							OFFSET -0.070227 0.081735 4.479403
							CHANNELS 3 Xrotation Yrotation Zrotation
							End Site
							{
								OFFSET 0 0 0
							}
						}
					}
				}
			}
		}
	}
	JOINT Spine_virtual
	{
		OFFSET 0.000000 0.000000 0.000000
		CHANNELS 3 Xrotation Yrotation Zrotation
		JOINT Spine
		{
			OFFSET 0.000000 6.876099 0.125700
			CHANNELS 3 Xrotation Yrotation Zrotation
			JOINT Spine1
			{
				OFFSET 0.000000 5.730043 0.104720
				CHANNELS 3 Xrotation Yrotation Zrotation
				JOINT Spine1_split
				{
					OFFSET 0.000000 5.730043 0.104720
					CHANNELS 3 Xrotation Yrotation Zrotation
					JOINT Spine2
					{
						OFFSET 0.000000 5.730043 0.104720
						CHANNELS 3 Xrotation Yrotation Zrotation
						JOINT Neck_virtual
						{
							OFFSET 0.000000 0.000000 0.000000
							CHANNELS 3 Xrotation Yrotation Zrotation
							JOINT Neck
							{
								OFFSET 0.000000 10.314075 0.188496
								CHANNELS 3 Xrotation Yrotation Zrotation
								JOINT Head
								{
									OFFSET 0.000000 7.643700 -2.377400
									CHANNELS 3 Xrotation Yrotation Zrotation
									JOINT HeadTop_End
									{
										OFFSET 0.000000 43.788605 -13.619600
										CHANNELS 3 Xrotation Yrotation Zrotation
										End Site
										{
											OFFSET 0 0 0
										}
									}
								}
							}
						}
						JOINT LeftShoulder_virtual
						{
							OFFSET 0.000000 0.000000 0.000000
							CHANNELS 3 Xrotation Yrotation Zrotation
							JOINT LeftShoulder
							{
								OFFSET 2.196100 4.412489 0.087492
								CHANNELS 3 Xrotation Yrotation Zrotation
								JOINT LeftShoulder_split
								{
									OFFSET 2.196100 4.412489 0.087492
									CHANNELS 3 Xrotation Yrotation Zrotation
									JOINT LeftArm
									{
										OFFSET 8.771219 -2.981674 -0.026999
										CHANNELS 3 Xrotation Yrotation Zrotation
										JOINT LeftForeArm
										{
											OFFSET 8.512804 0.000000 -0.000000
											CHANNELS 3 Xrotation Yrotation Zrotation
											JOINT LeftHand
											{
												OFFSET 18.484802 0.000000 -0.000000
												CHANNELS 3 Xrotation Yrotation Zrotation
												End Site
												{
													OFFSET 0 0 0
												}
											}
										}
									}
								}
							}
						}
						JOINT RightShoulder_virtual
						{
							OFFSET 0.000000 0.000000 0.000000
							CHANNELS 3 Xrotation Yrotation Zrotation
							JOINT RightShoulder
							{
								OFFSET -2.196100 4.412496 0.070690
								CHANNELS 3 Xrotation Yrotation Zrotation
								JOINT RightShoulder_split
								{
									OFFSET -2.196100 4.412496 0.070690
									CHANNELS 3 Xrotation Yrotation Zrotation
									JOINT RightArm
									{
										OFFSET -8.771282 -2.981682 -0.094208
										CHANNELS 3 Xrotation Yrotation Zrotation
										JOINT RightForeArm
										{
											OFFSET -8.494598 0.000000 0.000000
											CHANNELS 3 Xrotation Yrotation Zrotation
											JOINT RightHand
											{
												OFFSET -18.483803 0.000000 0.000001
												CHANNELS 3 Xrotation Yrotation Zrotation
												End Site
												{
													OFFSET 0 0 0
												}
											}
										}
									}
								}
							}
						}
					}
				}
			}
		}
	}
}
MOTION
Frames: 7
Frame Time: 0.03333333
0.253923 28.321712 0.352015 0.000000 0.000000 0.000000 11.723603 3.110916 -1.179541 -49.415353 2.055455 4.426953 81.490256 6.684878 -0.468888 -42.684909 7.134815 -6.048194 -0.000014 -0.000009 -0.000005 0.000000 0.000000 0.000000 11.723603 3.110916 -1.179541 -40.007000 -15.776950 -3.573390 78.710834 -7.476591 -4.654135 -50.510499 -12.642478 5.136767 0.000020 0.000005 -0.000002 0.000000 0.000000 0.000000 11.723603 3.110916 -1.179541 9.930227 1.363819 1.103807 7.645340 0.753229 0.067568 0.000000 0.000000 0.000000 0.000000 0.000000 0.000000 7.636948 0.840685 0.048856 -11.425859 -1.903121 7.327010 -27.420394 2.052766 -6.271737 0.000000 0.000000 0.000000 7.636948 0.840685 0.048856 3.557345 -26.212558 4.772371 0.000000 0.000000 0.000000 -62.403279 -21.804167 -66.739008 -179.999991 -70.549557 -179.999964 0.000000 0.000000 0.000000 7.636948 0.840685 0.048856 1.209619 13.189586 10.689374 0.000000 0.000000 0.000000 -58.736792 43.251220 51.659839 -179.999991 73.628148 179.999964 0.000000 0.000000 0.000000 
0.255863 28.323509 0.356234 0.000000 0.000000 0.000000 11.766905 3.101344 -1.194229 -49.442694 2.039969 4.460411 81.500631 6.671063 -0.529623 -42.693016 7.140555 -6.019967 -0.000014 -0.000007 -0.000004 0.000000 0.000000 0.000000 11.766905 3.101344 -1.194229 -40.034191 -15.784133 -3.552578 78.676744 -7.490809 -4.668470 -50.486942 -12.641610 5.152044 0.000016 -0.000001 -0.000001 0.000000 0.000000 0.000000 11.766905 3.101344 -1.194229 9.913115 1.382829 1.087592 7.633180 0.769256 0.058698 0.000000 0.000000 0.000000 0.000000 0.000000 0.000000 7.624615 0.856615 0.039881 -11.444184 -1.923866 7.361599 -27.436163 1.999899 -6.276384 0.000000 0.000000 0.000000 7.624615 0.856615 0.039881 3.557349 -26.212560 4.772371 0.000000 0.000000 0.000000 -62.439574 -21.913832 -66.819563 179.999923 -70.454241 179.999909 0.000000 0.000000 0.000000 7.624615 0.856615 0.039881 1.207735 13.175776 10.734722 0.000000 0.000000 0.000000 -58.706876 43.206124 51.589658 -179.999978 73.392760 179.999964 0.000000 0.000000 0.000000 
0.259205 28.323868 0.361431 0.000000 0.000000 0.000000 11.802738 3.087129 -1.219669 -49.462816 2.028376 4.493849 81.535308 6.650048 -0.581916 -42.721822 7.178602 -5.981315 -0.000015 -0.000005 -0.000005 0.000000 0.000000 0.000000 11.802738 3.087129 -1.219669 -40.044498 -15.798677 -3.530270 78.638072 -7.501283 -4.672217 -50.464784 -12.632059 5.166863 0.000022 0.000003 -0.000004 0.000000 0.000000 0.000000 11.802738 3.087129 -1.219669 9.895378 1.413402 1.074262 7.620005 0.793060 0.049375 0.000000 0.000000 0.000000 0.000000 0.000000 0.000000 7.611143 0.880648 0.030305 -11.470317 -1.969856 7.427051 -27.400892 1.869801 -6.289241 0.000000 0.000000 0.000000 7.611143 0.880648 0.030305 3.557339 -26.212562 4.772372 0.000000 0.000000 0.000000 -62.514181 -22.042337 -66.916060 -179.999991 -70.391165 -179.999991 0.000000 0.000000 0.000000 7.611143 0.880648 0.030305 1.205947 13.146151 10.801889 0.000000 0.000000 0.000000 -58.722668 43.168575 51.544053 179.999937 73.190600 -179.999964 0.000000 0.000000 0.000000 
0.264767 28.324524 0.367702 0.000000 0.000000 0.000000 11.839898 3.065315 -1.243626 -49.479762 2.047924 4.517327 81.561290 6.632851 -0.593211 -42.762503 7.212168 -5.948691 -0.000015 -0.000008 -0.000004 0.000000 0.000000 0.000000 11.839898 3.065315 -1.243626 -40.057390 -15.809035 -3.524896 78.599290 -7.512490 -4.662140 -50.440172 -12.602735 5.188288 0.000020 -0.000001 -0.000002 0.000000 0.000000 0.000000 11.839898 3.065315 -1.243626 9.879045 1.450721 1.059075 7.606528 0.822610 0.040046 0.000000 0.000000 0.000000 0.000000 0.000000 0.000000 7.597273 0.910608 0.020586 -11.512451 -2.020960 7.497546 -27.383004 1.723010 -6.301875 0.000000 0.000000 0.000000 7.597273 0.910608 0.020586 3.557345 -26.212565 4.772370 0.000000 0.000000 0.000000 -62.621018 -22.195921 -67.031258 179.999937 -70.314079 179.999937 0.000000 0.000000 0.000000 7.597273 0.910608 0.020586 1.205936 13.106021 10.860499 0.000000 0.000000 0.000000 -58.781954 43.109118 51.531236 179.999937 72.944481 -179.999991 0.000000 0.000000 0.000000 
0.272270 28.326534 0.374605 0.000000 0.000000 0.000000 11.877418 3.036561 -1.259349 -49.486821 2.079958 4.529364 81.564603 6.624900 -0.585543 -42.804857 7.225789 -5.925927 -0.000013 -0.000008 -0.000004 0.000000 0.000000 0.000000 11.877418 3.036561 -1.259349 -40.076941 -15.808621 -3.535693 78.561751 -7.524878 -4.647336 -50.410317 -12.562122 5.217703 0.000020 0.000003 -0.000003 0.000000 0.000000 0.000000 11.877418 3.036561 -1.259349 9.863539 1.483360 1.042404 7.592694 0.849624 0.032109 0.000000 0.000000 0.000000 0.000000 0.000000 0.000000 7.583052 0.938220 0.012216 -11.542869 -2.042861 7.545319 -27.447230 1.677693 -6.294208 0.000000 0.000000 0.000000 7.583052 0.938220 0.012216 3.557342 -26.212565 4.772371 0.000000 0.000000 0.000000 -62.695993 -22.305531 -67.112045 180.000005 -70.240381 179.999991 0.000000 0.000000 0.000000 7.583052 0.938220 0.012216 1.207721 13.049750 10.917841 0.000000 0.000000 0.000000 -58.840345 43.111007 51.540187 179.999909 72.756165 -179.999950 0.000000 0.000000 0.000000 
0.280250 28.328945 0.381550 0.000000 0.000000 0.000000 11.900337 3.007644 -1.265537 -49.470807 2.090002 4.537357 81.558046 6.621707 -0.604058 -42.841299 7.223480 -5.906427 -0.000014 -0.000011 -0.000004 0.000000 0.000000 0.000000 11.900337 3.007644 -1.265537 -40.086442 -15.795364 -3.544545 78.532470 -7.533809 -4.645855 -50.384099 -12.540568 5.248976 0.000017 -0.000001 -0.000002 0.000000 0.000000 0.000000 11.900337 3.007644 -1.265537 9.848580 1.505959 1.026394 7.579133 0.869098 0.024293 0.000000 0.000000 0.000000 0.000000 0.000000 0.000000 7.569112 0.958447 0.004006 -11.541542 -2.026950 7.561946 -27.520338 1.765035 -6.259367 0.000000 0.000000 0.000000 7.569112 0.958447 0.004006 3.557340 -26.212562 4.772369 0.000000 0.000000 0.000000 -62.712270 -22.301469 -67.112230 179.999991 -70.298247 179.999978 0.000000 0.000000 0.000000 7.569112 0.958447 0.004006 1.209570 12.989908 10.980350 0.000000 0.000000 0.000000 -58.873273 43.221297 51.547625 179.999964 72.841352 -179.999991 0.000000 0.000000 0.000000 
0.284433 28.330643 0.384295 0.000000 0.000000 0.000000 11.876133 2.995711 -1.254247 -49.418116 2.083465 4.522931 81.540089 6.630001 -0.617529 -42.850797 7.215653 -5.905456 -0.000013 -0.000007 -0.000004 0.000000 0.000000 0.000000 11.876133 2.995711 -1.254247 -40.060248 -15.774291 -3.549324 78.531282 -7.519173 -4.659654 -50.381839 -12.561260 5.255753 0.000019 0.000003 -0.000001 0.000000 0.000000 0.000000 11.876133 2.995711 -1.254247 9.850282 1.498128 1.027587 7.578356 0.862521 0.022663 0.000000 0.000000 0.000000 0.000000 0.000000 0.000000 7.568289 0.952671 0.002222 -11.512210 -1.989692 7.537599 -27.524581 1.896779 -6.198474 0.000000 0.000000 0.000000 7.568289 0.952671 0.002222 3.557344 -26.212562 4.772371 0.000000 0.000000 0.000000 -62.651413 -22.141633 -67.000222 -179.999978 -70.519880 -179.999991 0.000000 0.000000 0.000000 7.568289 0.952671 0.002222 1.208452 12.980045 11.008826 0.000000 0.000000 0.000000 -58.874776 43.403936 51.555583 179.999964 73.272678 180.000005 0.000000 0.000000 0.000000 
